<?xml version="1.0" encoding="UTF-8" standalone="no"?>
<svg
   xmlns:dc="http://purl.org/dc/elements/1.1/"
   xmlns:cc="http://creativecommons.org/ns#"
   xmlns:rdf="http://www.w3.org/1999/02/22-rdf-syntax-ns#"
   xmlns:svg="http://www.w3.org/2000/svg"
   xmlns="http://www.w3.org/2000/svg"
   viewBox="0 0 1073.6267 293.46667"
   height="293.46667"
   width="1073.6267"
   xml:space="preserve"
   id="svg2"
   version="1.1"><metadata
     id="metadata8"><rdf:RDF><cc:Work
         rdf:about=""><dc:format>image/svg+xml</dc:format><dc:type
           rdf:resource="http://purl.org/dc/dcmitype/StillImage" /></cc:Work></rdf:RDF></metadata><defs
     id="defs6" /><g
     transform="matrix(1.3333333,0,0,-1.3333333,0,293.46667)"
     id="g10"><g
       transform="scale(0.1)"
       id="g12"><path
         id="path14"
         style="fill:#040606;fill-opacity:1;fill-rule:nonzero;stroke:none"
         d="M 0,2201.02 H 1462.79 V 1478.53 H 722.492 Z M 0,1478.53 H 722.492 L 1462.79,739.309 H 722.492 V 0 L 0,739.309 v 739.221" /><path
         id="path16"
         style="fill:#040606;fill-opacity:1;fill-rule:nonzero;stroke:none"
         d="M 2840.64,638.609 V 1730.21 h 673.19 V 1512.1 h -420.5 v -286.27 h 420.5 v -218.06 h -420.5 V 638.609 h -252.69" /><path
         id="path18"
         style="fill:#040606;fill-opacity:1;fill-rule:nonzero;stroke:none"
         d="m 3664.85,638.609 v 756.031 h 251.65 v -168.81 c 0,50.35 33.57,101.74 67.11,135.27 50.35,33.54 84.97,50.35 135.27,50.35 33.54,0 50.3,-16.81 67.11,-16.81 v -219.15 h -67.11 c -67.12,0 -118.5,-16.77 -152.04,-67.12 -33.57,-33.53 -50.34,-100.6 -50.34,-184.53 V 638.609 h -251.65" /><path
         id="path20"
         style="fill:#040606;fill-opacity:1;fill-rule:nonzero;stroke:none"
         d="m 4589.69,605.039 c -118.46,0 -202.38,50.352 -269.46,117.473 -50.34,67.109 -83.92,167.769 -83.92,285.228 0,83.88 16.81,150.95 33.58,201.3 33.57,67.12 83.83,118.5 134.19,152.03 50.34,33.59 117.46,50.35 185.61,50.35 50.34,0 100.69,-16.76 151,-33.53 33.53,-16.82 67.12,-50.35 83.88,-101.73 v 118.5 h 251.69 V 638.629 h -251.69 v 100.652 c -16.76,-33.551 -50.35,-67.121 -83.88,-100.652 -50.31,-16.809 -100.66,-33.59 -151,-33.59 m 67.11,201.391 c 67.12,0 100.65,16.73 134.24,67.082 33.53,33.527 50.3,83.879 50.3,134.228 0,67.07 -16.77,100.65 -50.3,150.95 -33.59,33.58 -67.12,50.35 -134.24,50.35 -50.34,0 -101.73,-16.77 -135.26,-50.35 -33.54,-50.3 -50.31,-83.88 -50.31,-150.95 0,-50.349 16.77,-100.701 50.31,-134.228 33.53,-50.352 84.92,-67.082 135.26,-67.082" /><path
         id="path22"
         style="fill:#040606;fill-opacity:1;fill-rule:nonzero;stroke:none"
         d="m 5261.85,638.609 v 756.031 h 234.88 v -118.46 c 16.77,51.39 50.3,68.15 83.89,101.69 51.38,16.77 84.96,33.58 135.26,33.58 117.46,0 201.35,-50.35 234.89,-135.27 33.53,34.57 67.11,68.15 100.65,101.69 50.34,16.77 101.73,33.58 152.07,33.58 184.54,0 268.43,-100.7 268.43,-303.08 V 638.609 h -234.89 v 419.421 c 0,50.34 -16.76,83.92 -33.54,117.46 -16.81,16.76 -50.34,33.58 -84.91,33.58 -50.35,0 -83.93,-16.82 -100.7,-50.35 -16.77,-16.77 -33.58,-67.12 -33.58,-134.24 V 638.609 h -234.88 v 419.421 c 0,50.34 -16.73,83.92 -33.54,117.46 -16.77,16.76 -50.3,33.58 -83.88,33.58 -34.61,0 -68.2,-16.82 -101.69,-50.35 -16.81,-16.77 -33.58,-67.12 -33.58,-134.24 V 638.609 h -234.88" /><path
         id="path24"
         style="fill:#040606;fill-opacity:1;fill-rule:nonzero;stroke:none"
         d="M 7396.77,1058.05 V 940.629 h -554.69 c 0,-50.348 16.78,-83.93 50.36,-117.457 16.76,-16.731 67.07,-33.543 117.42,-33.543 83.87,0 117.46,16.812 150.95,67.07 h 235.96 C 7380,789.629 7346.43,722.512 7262.58,672.16 c -67.16,-33.531 -152.03,-67.109 -252.72,-67.109 -134.23,0 -234.89,33.578 -302,117.461 -68.16,67.117 -118.5,167.769 -118.5,285.228 0,134.19 50.34,218.07 118.5,303.03 67.11,67.12 167.77,100.66 302,100.66 117.46,0 202.38,-33.54 286.26,-100.66 67.08,-68.14 100.65,-152.07 100.65,-252.72 m -554.69,33.57 h 318.73 c 0,50.31 -16.72,83.89 -33.49,117.43 -33.59,33.58 -67.12,33.58 -117.46,33.58 -50.35,0 -100.66,-16.82 -134.23,-33.58 -16.77,-33.54 -33.55,-67.12 -33.55,-117.43" /><path
         id="path26"
         style="fill:#040606;fill-opacity:1;fill-rule:nonzero;stroke:none"
         d="m 7531.02,638.609 v 756.031 h 235.92 v -168.81 c 16.76,50.35 50.3,101.74 83.87,135.27 33.59,33.54 83.93,50.35 134.19,50.35 16.82,0 50.36,-16.81 67.16,-16.81 v -219.15 h -83.92 c -50.31,0 -100.65,-16.77 -134.19,-67.12 -50.35,-33.53 -67.11,-100.6 -67.11,-184.53 V 638.609 h -235.92" /></g></g></svg>